<svg id="Layer_1" data-name="Layer 1" xmlns="http://www.w3.org/2000/svg" xmlns:xlink="http://www.w3.org/1999/xlink" viewBox="0 0 893.56543 198.66877"><defs><style>.cls-1{fill:none;}.cls-2{fill:#181824;}.cls-3,.cls-5,.cls-6{fill:#fff;}.cls-4{fill:#019147;}.cls-5{font-size:7.26655px;}.cls-5,.cls-6{font-family:Arial-BoldMT, Arial;font-weight:700;}.cls-6{font-size:7.26654px;}.cls-7{clip-path:url(#clip-path);}.cls-8{fill:#086d38;}.cls-9{fill:#231f20;}.cls-10{clip-path:url(#clip-path-2);}.cls-11{clip-path:url(#clip-path-3);}</style><clipPath id="clip-path" transform="translate(458 -7.33123)"><path class="cls-1" d="M47.35406,21.95431c.42779,1.04562-.57954,2.11745-.69063,3.24171-.11726,1.18674.76724,2.21678,1.10886,3.35932a8.73549,8.73549,0,0,1,.16814,2.77686A29.46294,29.46294,0,0,0,49.5938,41.987a2.89917,2.89917,0,0,1,.23347,1.03922c-.0325.99276-1.04283,1.60849-1.85255,2.1838a4.55462,4.55462,0,0,0-1.78091,2.14715c-.425,1.2622.019,2.69123-.39841,3.956a9.08152,9.08152,0,0,1-.97265,1.762,9.284,9.284,0,0,0-.00672,9.35835,2.00986,2.00986,0,0,0,.6105.70437c.25906.16234.57562.214.83409.37731a2.28,2.28,0,0,1,.719,1.96306c.02789,1.03306-.22362,2.40619-1.25235,2.50478-.681.06527-1.49446-.50178-1.9701-.0101a34.59575,34.59575,0,0,1,6.79433,2.81826,3.04189,3.04189,0,0,0,1.42645.50244,2.98137,2.98137,0,0,0,1.60994-.71105,12.79073,12.79073,0,0,1,4.8417-2.39056,30.27523,30.27523,0,0,0,3.64258-.50708c2.11121-.67145,3.50017-2.69891,5.4707-3.71136,2.14521-1.10219,4.6917-.88135,7.10315-.92223a2.2038,2.2038,0,0,0,1.0424-.19587c.77339-.429.89218-1.6391,1.71509-1.96319-.69568-1.63168-2.48636-2.51526-3.4664-3.99373-1.00931-1.52263-1.04043-3.46942-1.03731-5.29619l.02575-15.10069a4.9226,4.9226,0,0,0-.22529-1.81658c-.24428-.62235-.73238-1.12166-1.00185-1.73351-.76008-1.72577.26807-4.13079-1.12082-5.40632-.68174-.6261-1.48473-1.59762-2.11415-2.2763a2.02522,2.02522,0,0,1-.44924-2.50446,9.35248,9.35248,0,0,1,.98768-.79891c.30792-.29251-.58405-.88461-.89724-1.17147-.9214-.35931-.88559-.67111-1.81031-.32045-.84767.32145-1.38936,1.16769-2.19416,1.585a4.91954,4.91954,0,0,1-2.53278.31809C56.83987,22.13469,52.08154,22.19635,47.35406,21.95431Z"/></clipPath><clipPath id="clip-path-2" transform="translate(458 -7.33123)"><path class="cls-1" d="M56.964,50.16531a6.9058,6.9058,0,0,0,2.32048,2.00141c1.40134.48075,2.0441-.41767,3.49572-.71376a3.244,3.244,0,0,0,1.74919-1.31945,6.64836,6.64836,0,0,0,.50949-1.41835v-.67487a6.98346,6.98346,0,0,1-8.07488,2.125Z"/></clipPath><clipPath id="clip-path-3" transform="translate(458 -7.33123)"><path class="cls-1" d="M61.68144,36.28366a7.424,7.424,0,0,0-9.3637,7.15941c0,.24418.01345.48516.03651.72328.01764.18194.048.35979.07855.53764a7.36277,7.36277,0,0,0,1.207,2.9575c.08457.12182.1745.2395.26611.35585.11483.146.2364.28567.36167.42252a7.38885,7.38885,0,0,0,11.28066-.42252c.13251-.16834.25921-.34116.37693-.52078a7.44619,7.44619,0,0,0,.93857-6.08686A7.27668,7.27668,0,0,0,61.68144,36.28366ZM65.53532,47.107a6.8675,6.8675,0,0,1-10.51815,1.33286c-.143-.13478-.27912-.276-.41016-.42252q-.22671-.25362-.42779-.52857a6.82692,6.82692,0,0,1-1.23534-2.98461c-.0173-.11137-.03913-.22122-.051-.33431a6.873,6.873,0,1,1,13.70747-.72678A6.83226,6.83226,0,0,1,65.53532,47.107Z"/></clipPath></defs><title>logo</title><rect class="cls-2" y="106.66877" width="458" height="92"/><circle class="cls-3" cx="518" cy="39.66877" r="33"/><path class="cls-4" d="M59.52062,7.33123A38.83439,38.83439,0,1,0,98.355,46.16562,38.8344,38.8344,0,0,0,59.52062,7.33123Zm-.23866,67.962A29.12757,29.12757,0,1,1,88.40952,46.16562,29.12757,29.12757,0,0,1,59.282,75.29318Z" transform="translate(458 -7.33123)"/><text class="cls-5" transform="translate(494.24219 18.54181) rotate(-44.99872)">A</text><text class="cls-5" transform="translate(497.79541 14.96467) rotate(-35.5024)">U</text><text class="cls-5" transform="translate(501.91211 12.00812) rotate(-25.90181)">D</text><text class="cls-5" transform="translate(506.54395 9.85529) rotate(-19.22561)">I</text><text class="cls-5" transform="matrix(0.97331, -0.22948, 0.22948, 0.97331, 508.32617, 9.16047)">T</text><text class="cls-5" transform="translate(512.52393 8.22785) rotate(-7.37829)"> </text><text class="cls-5" transform="translate(514.38379 7.90265) rotate(-1.17877)">S</text><text class="cls-5" transform="translate(519.07031 7.79279) rotate(7.60604)">E</text><text class="cls-5" transform="matrix(0.95693, 0.29032, -0.29032, 0.95693, 523.7041, 8.38019)">R</text><text class="cls-5" transform="translate(528.42627 9.80353) rotate(25.90181)">V</text><text class="cls-5" transform="matrix(0.8463, 0.53271, -0.53271, 0.8463, 532.64209, 11.92951)">I</text><text class="cls-5" transform="translate(534.29492 12.8509) rotate(38.80192)">C</text><text class="cls-5" transform="translate(538.23291 16.01886) rotate(47.9459)">E</text><text class="cls-6" transform="translate(503.09048 72.0546) rotate(22.91796)">G</text><text class="cls-6" transform="matrix(0.98175, 0.19017, -0.19017, 0.98175, 509.08858, 74.47521)">H</text><text class="cls-6" transform="translate(515.02796 75.54816) rotate(-0.49801)">A</text><text class="cls-6" transform="matrix(0.97884, -0.20461, 0.20461, 0.97884, 521.07642, 75.42415)">N</text><text class="cls-6" transform="translate(526.99178 74.10379) rotate(-23.37622)">A</text><path class="cls-8" d="M70.74544,48.65029a2.73786,2.73786,0,0,0-1.08784-.88782q-.66276-.30418-1.27964-.53355-.61774-.22923-.96647-.37906a2.07841,2.07841,0,0,1-.617-.40389.83706.83706,0,0,1-.26837-.63364.70516.70516,0,0,1,.35323-.5984,1.33927,1.33927,0,0,1,.76709-.2394,2.28987,2.28987,0,0,1,1.05438.22457,3.11535,3.11535,0,0,1,.88816.73293,3.27413,3.27413,0,0,1,.56894.84894h.42547V44.78486h-.19214v0H67.74211l.00128.00035-.0032-.00039a2.76177,2.76177,0,0,0-1.84113.67843,2.29424,2.29424,0,0,0-.376,3.07232,18.65558,18.65558,0,0,0,.33525.27922,9.75917,9.75917,0,0,0,1.43694.72845q.6777.26907,1.28477.50359a2.31712,2.31712,0,0,1,.83987.48392.95472.95472,0,0,1,.23284.67843.78029.78029,0,0,1-.31386.61846,1.229,1.229,0,0,1-.80917.25936,2.6444,2.6444,0,0,1-1.51283-.43908,3.47724,3.47724,0,0,1-1.05231-1.10234,5.737,5.737,0,0,1-.47111-.9538h-.45466v2.69455h3.44572a3.007,3.007,0,0,0,1.83941-.63324,1.94284,1.94284,0,0,0,.84642-1.6211A2.28485,2.28485,0,0,0,70.74544,48.65029Z" transform="translate(458 -7.33123)"/><path class="cls-9" d="M60.49447,52.32942l2.09686,8.50183a.63034.63034,0,0,0,.7481.46454l1.07362-.23739a.63035.63035,0,0,0,.47705-.76177l-2.068-8.66795a.39163.39163,0,0,0-.5035-.28108l-1.56641.51606A.39164.39164,0,0,0,60.49447,52.32942Z" transform="translate(458 -7.33123)"/><path class="cls-1" d="M54.20611,47.47818a1.24864,1.24864,0,0,0,.47184-.46559q.15727-.28041.35112-.66474c.08623-.17069.1487-.31408.21592-.46291a4.974,4.974,0,0,0-.31905-.47857,2.16762,2.16762,0,0,0-1.80149-.932,1.212,1.212,0,0,0-.18056.02974,6.82736,6.82736,0,0,0,1.23531,2.98464C54.1867,47.48461,54.19886,47.48245,54.20611,47.47818Z" transform="translate(458 -7.33123)"/><path class="cls-1" d="M52.19077,48.01737v-.23644l1.091-.059a3.40935,3.40935,0,0,0,.35807-.06044,7.36318,7.36318,0,0,1-1.207-2.95752,1.84472,1.84472,0,0,0-.60765.84862,6.7919,6.7919,0,0,0-.42632,2.50788,10.82705,10.82705,0,0,0,.31457,2.84417q.31455,1.132,1.09614,1.132a.92387.92387,0,0,0,.58877-.16246.68409.68409,0,0,0,.25385-.36285,2.29966,2.29966,0,0,0,.06105-.4715q.00984-.27058.01-.67155v-.42252a4.14139,4.14139,0,0,0-.03036-.62843A.9318.9318,0,0,0,53.5556,48.83a.5.5,0,0,0-.32974-.1628,3.69479,3.69479,0,0,0-.406-.03794c-.12175-.00345.47288-.009.37148-.01621v-.17315h1.07622c-.12529-.13684-.24683-.27653-.36169-.42252Z" transform="translate(458 -7.33123)"/><path class="cls-1" d="M58.6255,47.78093c.14728,0,.27869-.00215.39562-.00733q.17436-.00737.6343-.06661a2.3701,2.3701,0,0,0,.66189-.15486.40373.40373,0,0,0,.20212-.40631,2.63561,2.63561,0,0,0-.25731-.93089l-.66189-1.56626H56.14349l-.03483.09395-.535,1.44269c-.02785.0805-.04108.1434-.0626.21627a6.62565,6.62565,0,0,1,.41118,1.23039,1.79938,1.79938,0,0,0,.18639.04467c.0125.0022.02207.00638.03483.00836a5.89308,5.89308,0,0,0,.64362.06631q.31248.01508.6067.02962v.23644H54.607c.131.14651.26718.2877.41014.42252h2.218V48.613l-.467.03277a.63585.63585,0,0,0-.42114.15693.92316.92316,0,0,0-.13693.49289l-.00177.04393a6.84115,6.84115,0,0,0,8.63879-1.32219H58.6255Z" transform="translate(458 -7.33123)"/><path class="cls-1" d="M59.72707,36.56982a6.86775,6.86775,0,0,0-6.83418,7.6,3.78749,3.78749,0,0,1,1.46981.43459,9.04979,9.04979,0,0,0,.954.47667.39094.39094,0,0,0,.34707-.17573l.15707-.378c.0288-.103.05713-.21523.08463-.34543h.0589l2.90013-6.97975h2.02258l3.87926,8.45128.57014,1.15232a2.93347,2.93347,0,0,0,.1988.30124,6.86458,6.86458,0,0,0-5.80824-10.53719Z" transform="translate(458 -7.33123)"/><path class="cls-1" d="M55.60129,47.50017a1.25178,1.25178,0,0,0,.321.1318,6.62565,6.62565,0,0,0-.41118-1.23039,2.43313,2.43313,0,0,0-.12124.626A.5132.5132,0,0,0,55.60129,47.50017Z" transform="translate(458 -7.33123)"/><polygon class="cls-1" points="514.272 37.007 517.453 37.007 515.835 33.373 514.272 37.007"/><path class="cls-8" d="M54.92594,45.40637a4.974,4.974,0,0,1,.31905.47857c.03363-.07442.07912-.16255.108-.23149l.31085-.74807a.39094.39094,0,0,1-.34707.17573,9.04979,9.04979,0,0,1-.954-.47667,3.78749,3.78749,0,0,0-1.46981-.43459c.01185.11308.03371.22294.051.3343a1.212,1.212,0,0,1,.18056-.02974A2.16762,2.16762,0,0,1,54.92594,45.40637Z" transform="translate(458 -7.33123)"/><path class="cls-8" d="M56.347,48.80274a.63585.63585,0,0,1,.42114-.15693l.131-.03277v-.17315h-1.882a6.88739,6.88739,0,0,0,1.19112.89967l.00177-.04393A.92316.92316,0,0,1,56.347,48.80274Z" transform="translate(458 -7.33123)"/><path class="cls-8" d="M54.26759,48.43989H53.19137l.00211.2273a1.02034,1.02034,0,0,1,.36212.1628.9318.9318,0,0,1,.13727.48737,4.14139,4.14139,0,0,1,.03036.62843v.42252q0,.401-.01.67155a2.29966,2.29966,0,0,1-.06105.4715.68409.68409,0,0,1-.25385.36285.92387.92387,0,0,1-.58877.16246q-.78125,0-1.09614-1.132a10.82705,10.82705,0,0,1-.31457-2.84417,6.7919,6.7919,0,0,1,.42632-2.50788,1.84472,1.84472,0,0,1,.60765-.84862c-.03052-.17785-.06092-.35569-.07855-.53764a3.86557,3.86557,0,0,0-2.67068,1.099,3.9773,3.9773,0,0,0-1.12684,2.958,4.2378,4.2378,0,0,0,1.02509,2.91418,3.24252,3.24252,0,0,0,2.52754,1.15926l3.94824-.09761h.15245l-.02035-.97507V49.95472A7.42941,7.42941,0,0,1,54.26759,48.43989Z" transform="translate(458 -7.33123)"/><path class="cls-8" d="M64.76637,45.65345l-3.87926-8.45128H58.86453L55.9644,44.18192h.14426v.5607l.03483-.09395h3.45674l.66189,1.56626a2.63561,2.63561,0,0,1,.25731.93089.40373.40373,0,0,1-.20212.40631,2.3701,2.3701,0,0,1-.66189.15486q-.45994.05956-.6343.06661a1.65363,1.65363,0,0,1-.17958.00733v.23644h6.00554a6.8893,6.8893,0,0,0,.68823-.91036,2.93347,2.93347,0,0,1-.1988-.30124ZM56.27215,44.3386,57.835,40.70375l1.618,3.63485Z" transform="translate(458 -7.33123)"/><path class="cls-8" d="M55.82087,44.52735l-.15707.378c.01449-.02126.03786-.03169.04889-.05709A2.56124,2.56124,0,0,0,55.82087,44.52735Z" transform="translate(458 -7.33123)"/><path class="cls-8" d="M55.02907,46.34785q-.19348.38448-.35112.66474a1.24864,1.24864,0,0,1-.47184.46559c-.00725.00427-.01941.00643-.02691.01061q.20107.27517.42783.52858h2.29209v-.23644c.00272-.02636.00272-.02636-.112-.02962a5.12731,5.12731,0,0,1-.64362-.06631c-.01276-.002-.02233-.00616-.03483-.00836v.00479h-.17281c-.00388-.01712-.00961-.03243-.01358-.04946a1.25178,1.25178,0,0,1-.321-.1318.5132.5132,0,0,1-.21144-.47262,2.43313,2.43313,0,0,1,.12124-.626,5.44755,5.44755,0,0,0-.2661-.51664C55.17777,46.03377,55.1153,46.17716,55.02907,46.34785Z" transform="translate(458 -7.33123)"/><path class="cls-8" d="M56.10866,47.68143v-.00479a1.79938,1.79938,0,0,1-.18639-.04467c.004.017.0097.03234.01358.04946Z" transform="translate(458 -7.33123)"/><path class="cls-8" d="M55.245,45.88494a5.44755,5.44755,0,0,1,.2661.51664c.02152-.07287.03475-.13577.0626-.21627l.535-1.44269v-.5607H55.9644l-.14353.34543a2.56124,2.56124,0,0,1-.10818.32094c-.011.0254-.0344.03583-.04889.05709l-.31085.74807C55.32411,45.72239,55.27862,45.81052,55.245,45.88494Z" transform="translate(458 -7.33123)"/><path class="cls-3" d="M135.38428,67.63672h-4.13477a20.22607,20.22607,0,0,1-.29053-2.583c-.9541,2.28809-2.95019,3.08594-5.17089,3.08594-5.06348,0-6.69288-3.665-6.69288-9.49512V42.4873c0-5.61914,2.1875-9.75439,8.166-9.75439,7.2251,0,7.98731,5.31152,7.98731,9.00439V42.854h-5.30567V41.47754c0-1.814-.26367-3.91065-2.6875-3.91065-1.93213,0-2.75781,1.33692-2.75781,4.084V59.249c0,2.75293.79736,4.19239,2.71435,4.19239,2.3003,0,2.86084-1.92481,2.86084-5.46094V52.958H127.064V48.39648h8.32032Z" transform="translate(458 -7.33123)"/><path class="cls-3" d="M139.709,33.23584h5.30567V46.81641h5.71094V33.23584h5.30566V67.63672h-5.30566V51.69531h-5.71094V67.63672H139.709Z" transform="translate(458 -7.33123)"/><path class="cls-3" d="M165.30322,58.43457l-1.20508,9.20215h-5.396l5.541-34.40088h7.49561l5.75342,34.40088h-5.54444l-1.353-9.20215Zm4.665-4.87891c-.78662-5.84277-1.53857-11.38818-1.93164-15.27783h-.19385c-.14843,2.83447-1.18213,10.20069-1.86816,15.27783Z" transform="translate(458 -7.33123)"/><path class="cls-3" d="M180.03662,67.63672V33.23584h6.144c1.37159,4.854,5.47657,21.83545,5.84082,23.65771h.05762c-.24512-4.23046-.25732-9.07128-.25732-14.72412V33.23584h4.89746V67.63672h-5.91113c-1.085-4.10938-5.66407-22.97656-6.00782-24.42188H184.749c.251,4.165.23047,8.82813.23047,15.01465v9.40723Z" transform="translate(458 -7.33123)"/><path class="cls-3" d="M205.99072,58.43457l-1.20508,9.20215h-5.396l5.541-34.40088h7.49561l5.75342,34.40088h-5.54444l-1.353-9.20215Zm4.665-4.87891c-.78662-5.84277-1.53857-11.38818-1.93164-15.27783h-.19385c-.14843,2.83447-1.18213,10.20069-1.86816,15.27783Z" transform="translate(458 -7.33123)"/><path class="cls-3" d="M232.30859,58.43457l-1.2041,9.20215H225.708l5.541-34.40088h7.4961l5.75293,34.40088h-5.54492l-1.35254-9.20215Zm4.666-4.87891c-.78711-5.84277-1.53906-11.38818-1.93262-15.27783h-.19336c-.14843,2.83447-1.18261,10.20069-1.86816,15.27783Z" transform="translate(458 -7.33123)"/><path class="cls-3" d="M252.09766,33.23584v26.1665c0,2.51368.82129,3.94239,2.875,3.94239,2.10449,0,2.78418-1.60645,2.78418-3.93555V33.23584h5.31152v26.064c0,5.42774-2.45313,8.83985-8.19238,8.83985-5.46778,0-8.084-2.959-8.084-8.82129V33.23584Z" transform="translate(458 -7.33123)"/><path class="cls-3" d="M267.541,33.23584h7.35937c7.29785,0,9.07227,3.78125,9.07227,10.166V56.59277c0,5.25977-.90235,11.04395-9.082,11.04395H267.541Zm5.30566,29.88428h1.70117c3.48731,0,4.02246-2.24512,4.02246-5.80567V42.9834c0-3.16358-.55761-5.186-4.05468-5.186h-1.66895Z" transform="translate(458 -7.33123)"/><path class="cls-3" d="M293.24219,33.23584V67.63672h-5.30567V33.23584Z" transform="translate(458 -7.33123)"/><path class="cls-3" d="M301.18359,38.16016h-5.52246V33.23584h16.38379v4.92432h-5.55566V67.63672h-5.30567Z" transform="translate(458 -7.33123)"/><path class="cls-3" d="M324.76465,57.51172v2.126c0,2.55957.76855,3.98535,2.78418,3.98535,2.06836,0,2.60351-1.959,2.60351-4.19336,0-3.69727-.79687-4.84375-4.48632-7.75489-3.70215-2.92285-5.67969-4.792-5.67969-9.88378,0-4.53418,1.37207-9.10938,7.58105-9.103,6.34961.00586,7.33008,4.53271,7.33008,8.26465V42.79H329.6377V41.09473c0-2.39551-.4043-3.84522-2.167-3.84522-1.72363,0-2.17871,1.499-2.17871,3.7793,0,2.43017.46094,3.6206,3.48535,5.83252,5.14844,3.80762,6.72559,6.01758,6.72559,11.77344,0,4.87988-1.71,9.50488-8.12891,9.50488-6.36328,0-7.915-4.05469-7.915-8.58594v-2.042Z" transform="translate(458 -7.33123)"/><path class="cls-3" d="M351.5918,51.92188h-7.56153V62.75781h8.71582l-.67187,4.87891H338.72461V33.23584h13.28516v4.92432h-7.9795V47.043h7.56153Z" transform="translate(458 -7.33123)"/><path class="cls-3" d="M360.6084,52.25391V67.63672h-5.30567V33.23584h7.34961c5.23438,0,8.32422,2.09668,8.32422,8.28955V42.835c0,5.28613-2.16992,6.63086-3.502,7.17676,2.00684.94141,3.1543,2.38769,3.1543,7.05566a95.28541,95.28541,0,0,0,.31445,10.56934h-5.124c-.457-2.07813-.36036-7.72852-.36036-10.22754,0-4.19336-.54-5.15527-3.61914-5.15527Zm0-4.38086h1.2168c2.80761,0,3.83984-1.05762,3.83984-4.79883V41.894c0-2.65918-.54981-4.27783-3.55664-4.27783h-1.5Z" transform="translate(458 -7.33123)"/><path class="cls-3" d="M378.82227,67.63672l-6.01954-34.40088h5.73243l1.8291,13.99658c.59668,4.63184,1.34082,9.499,1.64941,13.45606h.09668c.30274-3.73047,1.09766-8.64258,1.64942-13.34766l1.71777-14.105h5.68066l-5.8623,34.40088Z" transform="translate(458 -7.33123)"/><path class="cls-3" d="M398.877,33.23584V67.63672h-5.30566V33.23584Z" transform="translate(458 -7.33123)"/><path class="cls-3" d="M418.48047,57.35156v1.34082c0,3.9336-.65527,9.44727-7.92969,9.44727-6.37207,0-7.7207-3.98242-7.7207-9.23047V41.562c0-5.3081,2.40722-8.8291,7.81152-8.8291,6.45215,0,7.68457,4.27686,7.68457,9.04346v1.541h-5.31836V41.1543c0-2.28614-.53613-3.58741-2.3789-3.58741-1.81153,0-2.39649,1.252-2.39649,3.606V59.3623c0,2.24415.44629,3.98829,2.46094,3.98829,1.915,0,2.42383-1.51465,2.42383-4.0752V57.35156Z" transform="translate(458 -7.33123)"/><path class="cls-3" d="M434.41113,51.92188h-7.56152V62.75781h8.71582l-.67188,4.87891H421.544V33.23584h13.28613v4.92432h-7.98047V47.043h7.56152Z" transform="translate(458 -7.33123)"/></svg>